/* XPM */
static char * really_good_link_xpm[] = {
"16 16 2 1",
" 	c None",
".	c #000000",
"            .   ",
"        .   .   ",
"     .   .   .  ",
"      .  .   .  ",
"   .   .  .   . ",
"    .  .  .   . ",
" .  .  .  .   . ",
"... .  .  .  .  ",
" .  .     .  .  ",
" . .  .  .   .  ",
" .   .  .   .   ",
" .          .   ",
" .         .    ",
" .              ",
" .              ",
" .              "};
