/* XPM */
static char * some_link_xpm[] = {
"24 16 214 2",
"  	c None",
". 	c #E0DCD8",
"+ 	c #D1CFCD",
"@ 	c #CCC9C8",
"# 	c #CBC8C7",
"$ 	c #CFCDCB",
"% 	c #DBD8D4",
"& 	c #D7D4D0",
"* 	c #ADADAD",
"= 	c #9A9A9F",
"- 	c #9A9AA5",
"; 	c #A2A3AD",
"> 	c #A2A2AD",
", 	c #9F9EA8",
"' 	c #9B9AA1",
") 	c #ABAAAC",
"! 	c #D0CECB",
"~ 	c #D6D3D0",
"{ 	c #949597",
"] 	c #73767D",
"^ 	c #838190",
"/ 	c #AFB1C6",
"( 	c #D6D8E8",
"_ 	c #EBEBF6",
": 	c #E0E1EC",
"< 	c #DADBEB",
"[ 	c #BDBED3",
"} 	c #8F8D9B",
"| 	c #7C7B85",
"1 	c #8B8C90",
"2 	c #C9C7C5",
"3 	c #D9D6D3",
"4 	c #9FA0A2",
"5 	c #5B5F6A",
"6 	c #767886",
"7 	c #A7A8BE",
"8 	c #CDCFE3",
"9 	c #E1E3F0",
"0 	c #E4E4EC",
"a 	c #B4B8C0",
"b 	c #747B88",
"c 	c #BABDC7",
"d 	c #E6E7F4",
"e 	c #D5D7EA",
"f 	c #B7B7CC",
"g 	c #858393",
"h 	c #60636F",
"i 	c #8C8E92",
"j 	c #D2CFCD",
"k 	c #DEDAD7",
"l 	c #98989C",
"m 	c #696B79",
"n 	c #9496AB",
"o 	c #B3B5CA",
"p 	c #D0D3E6",
"q 	c #E2E3F1",
"r 	c #ECEDF4",
"s 	c #C2C7CF",
"t 	c #4A5C70",
"u 	c #36495D",
"v 	c #6B7684",
"w 	c #E9E9F1",
"x 	c #E4E5F2",
"y 	c #D7DAEB",
"z 	c #C1C4D9",
"A 	c #A3A5BA",
"B 	c #737282",
"C 	c #84858B",
"D 	c #D5D2CF",
"E 	c #C7C5C4",
"F 	c #6D7079",
"G 	c #9294A8",
"H 	c #BCBED4",
"I 	c #D2D5E9",
"J 	c #E2E4F2",
"K 	c #F0F2F5",
"L 	c #DCDEE2",
"M 	c #5C6576",
"N 	c #3F4A5D",
"O 	c #757C89",
"P 	c #EFEFF2",
"Q 	c #EEEDF4",
"R 	c #E7E7F3",
"S 	c #DBDEEF",
"T 	c #CACDE2",
"U 	c #A0A0B5",
"V 	c #6A6C79",
"W 	c #B3B1B4",
"X 	c #C0BFBE",
"Y 	c #656973",
"Z 	c #767A8D",
"` 	c #D1D4EA",
" .	c #E3E5F4",
"..	c #EFEFF6",
"+.	c #F3F4F6",
"@.	c #F7F8F7",
"#.	c #F9FBF9",
"$.	c #FCFCFC",
"%.	c #FBFCFB",
"&.	c #FAFBFA",
"*.	c #EEEDF5",
"=.	c #E7E7F4",
"-.	c #D9DDF0",
";.	c #A9ACC0",
">.	c #646976",
",.	c #9A999E",
"'.	c #CDCAC9",
").	c #75757E",
"!.	c #838596",
"~.	c #BFC2D6",
"{.	c #E2E3F2",
"].	c #F0F1F6",
"^.	c #F7F8F6",
"/.	c #FAFBF8",
"(.	c #F7F9F6",
"_.	c #ECECED",
":.	c #F1F2F2",
"<.	c #EDEDED",
"[.	c #F8F8F6",
"}.	c #F6F6F6",
"|.	c #EFEFF5",
"1.	c #CCCEE1",
"2.	c #9696A7",
"3.	c #666771",
"4.	c #B8B6B8",
"5.	c #E0DCD9",
"6.	c #A5A2A7",
"7.	c #73717A",
"8.	c #898A98",
"9.	c #A5A6B6",
"0.	c #C6C6D6",
"a.	c #E2E2EE",
"b.	c #EEEFF6",
"c.	c #EFF0F7",
"d.	c #EAECF3",
"e.	c #EDEEF6",
"f.	c #E9EAF1",
"g.	c #EAEBF4",
"h.	c #E4E4EF",
"i.	c #CECEDC",
"j.	c #AFAEBE",
"k.	c #8E8C9B",
"l.	c #6A6A73",
"m.	c #939097",
"n.	c #D9D6D4",
"o.	c #DFDAD8",
"p.	c #B1ACB0",
"q.	c #87858C",
"r.	c #77777C",
"s.	c #7E7E88",
"t.	c #797A83",
"u.	c #7A7A84",
"v.	c #7B7C87",
"w.	c #7D7E89",
"x.	c #7E808A",
"y.	c #7D7E88",
"z.	c #7A7C85",
"A.	c #787981",
"B.	c #797A84",
"C.	c #77767E",
"D.	c #848087",
"E.	c #A9A3A9",
"F.	c #D9D5D3",
"G.	c #E3DFDB",
"H.	c #C4BFC0",
"I.	c #AEAAAC",
"J.	c #9A979A",
"K.	c #848186",
"L.	c #78777C",
"M.	c #86868E",
"N.	c #898992",
"O.	c #7B797F",
"P.	c #79767C",
"Q.	c #817E83",
"R.	c #979297",
"S.	c #A9A5A7",
"T.	c #BEBABA",
"U.	c #E1DEDA",
"V.	c #D6D1CE",
"W.	c #CBC7C6",
"X.	c #C4C0BF",
"Y.	c #B6B5B3",
"Z.	c #ABA9A9",
"`.	c #A8A6A5",
" +	c #AFADAC",
".+	c #C1BFBC",
"++	c #CBC7C5",
"@+	c #D3CFCD",
"#+	c #DFDBD7",
"$+	c #A297A1",
"%+	c #5E595D",
"&+	c #6C656B",
"*+	c #A59AA4",
"=+	c #A09D9A",
"-+	c #5E5D5B",
";+	c #6B6967",
">+	c #A3A09D",
",+	c #534E52",
"'+	c #E9D0AC",
")+	c #D9A65C",
"!+	c #535250",
"~+	c #CECAC7",
"{+	c #E6E2DE",
"]+	c #605B60",
"^+	c #CC8219",
"/+	c #807780",
"(+	c #605E5D",
"_+	c #7F7C7A",
":+	c #A097A0",
"<+	c #786F78",
"[+	c #B2A7B1",
"}+	c #9F9C9A",
"|+	c #777472",
"1+	c #B0ADAA",
"                  . + @ # $ %                   ",
"              & * = - ; > , ' ) !               ",
"          ~ { ] ^ / ( _ : < [ } | 1 2           ",
"      3 4 5 6 7 8 9 0 a b c d e f g h i j       ",
"    k l m n o p q r s t u v w x y z A B C D     ",
"    E F G H I J r K L M N O P Q R S T U V W     ",
"    X Y Z `  ...+.@.#.$.%.&.@.+.*.=.-.;.>.,.    ",
"    '.).!.~.{.].^./.(._.:.<.[.}.|.x 1.2.3.4.    ",
"    5.6.7.8.9.0.a.b.c.d.e.f.g.h.i.j.k.l.m.n.    ",
"      o.p.q.r.s.t.u.v.w.x.y.z.A.B.C.D.E.F.      ",
"        G.H.I.J.K.L.L.M.N.O.P.Q.R.S.T.5.        ",
"            U.V.W.X.Y.Z.`. +.+++@+#+            ",
"  $+%+&+*+    =+-+;+>+    =+-+;+>+    =+-+;+>+  ",
"  ,+'+)+&+    !+~+{+;+    !+~+{+;+    !+~+{+;+  ",
"  ]+)+^+/+    (+{+{+_+    (+{+{+_+    (+{+{+_+  ",
"  :+<+<+[+    }+|+|+1+    }+|+|+1+    }+|+|+1+  "};
